<?xml version="1.0" encoding="utf-8"?>
<!-- Generator: Adobe Illustrator 28.0.0, SVG Export Plug-In . SVG Version: 6.00 Build 0)  -->
<svg version="1.1" id="Layer_2_00000034081123263731954500000007816351614369168264_"
	 xmlns="http://www.w3.org/2000/svg" xmlns:xlink="http://www.w3.org/1999/xlink" x="0px" y="0px" viewBox="0 0 51 47.2"
	 style="enable-background:new 0 0 51 47.2;" xml:space="preserve">
<style type="text/css">
	.st0{fill:#59AFFF;stroke:#000000;stroke-miterlimit:10;}
</style>
<path class="st0" d="M7.4,19.7L33.5,6.2c2.6-1.3,5.8-0.3,7.1,2.3v0c1.3,2.6,0.3,5.8-2.3,7.1L12.2,29.1c-2.6,1.3-5.8,0.3-7.1-2.3l0,0
	C3.7,24.2,4.8,21,7.4,19.7z"/>
<g>
	<path d="M17.3,33.2c0.6-0.3,0.9-0.4,1-0.3c0,0,0.1,0.1,0.1,0.1c0,0.1,1.1,3.3,3.2,9.8v0.3l1.7-0.8c0.4-0.2,0.7-0.3,0.8-0.3
		c0.1,0,0.3,0.1,0.4,0.3l0.3,0.8l-4.1,2.1L17,33.3L17.3,33.2L17.3,33.2z"/>
	<path d="M30.6,36.7c0.1,1,0.1,1.9-0.2,2.7c-0.2,0.8-0.8,1.4-1.5,1.8s-1.4,0.4-2,0.2s-1.1-0.9-1.6-1.8c-0.5-0.9-0.9-1.9-1.2-3
		c-0.3-1-0.6-2-0.7-3s-0.1-1.9,0.2-2.7c0.3-0.8,0.8-1.4,1.5-1.8c0.7-0.4,1.4-0.4,1.9-0.2s1.1,0.9,1.6,1.8c0.5,0.9,0.9,1.9,1.2,3
		C30.2,34.6,30.4,35.7,30.6,36.7L30.6,36.7z M28.5,39.8c0.5-0.2,0.7-0.9,0.6-2c-0.1-1.1-0.3-2.2-0.7-3.3c-0.4-1.1-0.8-2.1-1.2-2.9
		c-0.6-1.1-1.2-1.5-1.8-1.2c-0.5,0.2-0.7,0.9-0.6,2s0.3,2.2,0.7,3.3s0.7,2.1,1.2,2.9C27.3,39.6,27.9,40.1,28.5,39.8L28.5,39.8z"/>
	<path d="M38.6,36.1c-0.5,0.3-0.9,0.4-1,0.4s-0.3-0.2-0.6-0.7l-1.5-2.6l-1.8,0.9l0.5,4.2l-0.2,0.1c-0.6,0.3-0.9,0.4-1,0.3
		c-0.1-0.1-0.1-0.1-0.2-0.2s-0.2-0.9-0.3-2.5l-1-10.1l1.3-0.7l6.3,10.5L38.6,36.1L38.6,36.1z M34.8,32l-0.2-0.2l-1.7-3.3l0.5,3.8
		l-0.1,0.3L34.8,32L34.8,32z"/>
	<path d="M40.8,21.8c0.6,0.3,1,0.8,1.4,1.5s0.7,1.5,1,2.2c0.3,0.7,0.6,1.5,0.8,2.4c0.2,0.9,0.4,1.7,0.4,2.5s-0.1,1.5-0.3,2.1
		c-0.3,0.7-0.7,1.1-1.3,1.4c-0.1,0-1,0.4-2.7,1.2l-3.8-11.8l2.4-1.4C39.6,21.6,40.3,21.5,40.8,21.8L40.8,21.8z M42.3,32.7
		c0.4-0.2,0.6-0.7,0.7-1.4s-0.1-1.6-0.3-2.5c-0.5-1.9-1-3.4-1.6-4.5c-0.2-0.5-0.5-0.8-0.8-1s-0.6-0.2-0.9,0L38.1,24l0.1,0.2l2.9,9.1
		v0.1L42.3,32.7z"/>
</g>
</svg>
