<?xml version="1.0" encoding="UTF-8"?>
<svg id="Layer_1" data-name="Layer 1" xmlns="http://www.w3.org/2000/svg" viewBox="0 0 254 188">
  <defs>
    <style>
      .cls-1, .cls-2 {
        stroke-width: 0px;
      }

      .cls-2 {
        fill: gray;
      }

      .cls-3 {
        stroke: #0032d2;
      }

      .cls-3, .cls-4 {
        fill: none;
        stroke-miterlimit: 10;
      }

      .cls-4 {
        stroke: #59afff;
      }
    </style>
  </defs>
  <g>
    <path class="cls-2" d="m16.46,187.5c-8.8,0-15.96-7.16-15.96-15.96V16.46C.5,7.66,7.66.5,16.46.5h221.08c8.8,0,15.96,7.16,15.96,15.96v121.57c0,27.28-22.19,49.47-49.47,49.47H16.46Z"/>
    <path class="cls-1" d="m237.54,1c8.52,0,15.46,6.93,15.46,15.46v121.57c0,27-21.97,48.97-48.97,48.97H16.46c-8.52,0-15.46-6.93-15.46-15.46V16.46C1,7.93,7.93,1,16.46,1h221.08m0-1H16.46C7.37,0,0,7.37,0,16.46v155.08c0,9.09,7.37,16.46,16.46,16.46h187.57c27.6,0,49.97-22.37,49.97-49.97V16.46c0-9.09-7.37-16.46-16.46-16.46h0Z"/>
  </g>
  <line class="cls-4" x1="15" y1="9.5" x2="239" y2="9.5"/>
  <line class="cls-3" x1="15" y1="12.5" x2="239" y2="12.5"/>
  <rect class="cls-2" x="100" y="3" width="54" height="16"/>
  <g>
    <path class="cls-1" d="m111.21,14.14c-.33.97-.8,1.75-1.39,2.35-.59.6-1.29.9-2.12.9s-1.43-.25-1.81-.76c-.39-.5-.58-1.29-.58-2.36s.08-2.14.25-3.2c.16-1.06.41-2.07.74-3.03.33-.96.79-1.73,1.38-2.33.59-.6,1.3-.89,2.12-.89s1.43.24,1.82.72c.39.48.58,1.26.58,2.32s-.08,2.13-.25,3.2c-.16,1.07-.41,2.09-.75,3.06Zm-3.26,1.83c.53,0,1.01-.5,1.44-1.5.42-1,.73-2.08.92-3.25.19-1.17.28-2.2.28-3.09,0-1.25-.34-1.87-1.02-1.87-.54,0-1.03.5-1.45,1.49s-.72,2.07-.91,3.23-.28,2.2-.28,3.1c0,1.26.34,1.89,1.02,1.89Z"/>
    <path class="cls-1" d="m117.1,13.27c0-.19-.07-.41-.22-.65-.15-.24-.29-.44-.43-.6-.14-.15-.37-.39-.69-.72v.02c-.41-.42-.72-.75-.93-.99-.21-.24-.42-.57-.64-.99s-.32-.86-.32-1.33.04-.89.13-1.25.24-.7.47-1c.45-.61,1.39-.92,2.81-.92l1.92.39c-.08.44-.19.74-.33.89-.14.15-.33.23-.57.23l-1.14-.12c-.66.01-1.11.16-1.35.45s-.37.7-.37,1.23c0,.5.38,1.1,1.14,1.82.32.31.63.61.95.93.32.31.59.67.81,1.06.22.4.33.79.33,1.19,0,2.98-1.24,4.48-3.71,4.49l-2.53-.36.19-1.39,2.58.19c1.27-.07,1.9-.92,1.9-2.57Z"/>
    <path class="cls-1" d="m121.02,17.28h-.42l1.7-10.81.03-.07h-1.79l.22-1.36h5.13l-.24,1.36h-1.8v.19l-1.53,9.72c-.07.45-.17.73-.3.82-.13.1-.47.14-1.01.14Z"/>
    <path class="cls-1" d="m131.1,17.28c-.65,0-1.03-.04-1.16-.11s-.27-.35-.42-.82l-1.39-4.64h-.44v.19l-.68,4.42c-.07.45-.17.73-.3.82-.13.1-.47.14-1.01.14h-.39l1.94-12.26,2.07-.19c1.01,0,1.7.16,2.07.48s.56.8.56,1.46c0,2.77-.77,4.39-2.29,4.88l1.84,5.63h-.39Zm-2.62-7c1.26,0,1.89-1.08,1.89-3.25,0-.28-.08-.48-.25-.6-.17-.11-.48-.17-.94-.17h-.77l.07.48-.48,3.25-.2.29h.68Z"/>
    <path class="cls-1" d="m134.22,17.28c-.35,0-.59-.01-.71-.03-.27-.03-.41-.21-.41-.53,0-.07.61-3.96,1.82-11.68h.29c.48,0,.78.03.92.08.14.05.2.16.2.34s-.61,4.12-1.82,11.82h-.29Z"/>
    <path class="cls-1" d="m139.52,17.4c-.91,0-1.54-.24-1.91-.73-.37-.49-.55-1.16-.55-2.02s.03-1.68.09-2.46c.06-.78.19-1.62.39-2.54.2-.92.45-1.72.76-2.4.31-.68.73-1.25,1.28-1.72.55-.46,1.18-.7,1.9-.7l1.82.39c-.08.44-.2.75-.37.91-.17.16-.39.25-.65.25-.03,0-.37-.04-1.02-.12-.46,0-.88.31-1.24.93s-.64,1.37-.83,2.27c-.39,1.81-.58,3.39-.58,4.74,0,1.1.37,1.65,1.1,1.65.27,0,.62-.03,1.05-.08.43-.06.73-.08.9-.08l-.24,1.41c-.11.01-.4.07-.85.16-.45.1-.8.14-1.05.14Z"/>
    <path class="cls-1" d="m148.27,17.28c-.45,0-.76-.02-.91-.06-.15-.04-.23-.16-.23-.35,0-.07.27-1.85.82-5.35l.03-.14h-2.53v.2l-.75,4.73c-.08.45-.18.73-.31.82-.13.1-.46.14-.99.14h-.36l1.96-12.24h.27c.33,0,.55.01.66.03.29.03.44.2.44.51,0,.11-.21,1.55-.63,4.3l-.03.08h2.53v-.2l.75-4.73h.27c.62,0,.97.09,1.04.26.03.08.05.18.05.31s-.6,4.02-1.79,11.68h-.29Z"/>
  </g>
</svg>