<?xml version="1.0" encoding="utf-8"?>
<!-- Generator: Adobe Illustrator 28.0.0, SVG Export Plug-In . SVG Version: 6.00 Build 0)  -->
<svg version="1.1" id="Layer_2_00000141425648249339795520000005695152760528281227_"
	 xmlns="http://www.w3.org/2000/svg" xmlns:xlink="http://www.w3.org/1999/xlink" x="0px" y="0px" viewBox="0 0 46.7 45.1"
	 style="enable-background:new 0 0 46.7 45.1;" xml:space="preserve">
<style type="text/css">
	.st0{fill:#59AFFF;stroke:#000000;stroke-miterlimit:10;}
</style>
<path class="st0" d="M6.8,20.4L33,6.9c2.6-1.3,5.8-0.3,7.1,2.3l0,0c1.3,2.6,0.3,5.8-2.3,7.1L11.6,29.7c-2.6,1.3-5.8,0.3-7.1-2.3l0,0
	C3.2,24.9,4.2,21.7,6.8,20.4z"/>
<g>
	<path d="M23.5,39.6c-0.1-0.2-0.2-0.3-0.5-0.5s-0.5-0.3-0.7-0.3c-0.2-0.1-0.5-0.2-0.9-0.3v0c-0.6-0.2-1-0.3-1.3-0.5
		c-0.3-0.1-0.6-0.3-1-0.6s-0.7-0.6-0.9-1s-0.4-0.8-0.5-1.2s-0.1-0.7,0-1.1c0.1-0.8,0.8-1.4,2.1-2.1l1.9-0.5c0.1,0.4,0.2,0.8,0.1,0.9
		s-0.2,0.3-0.4,0.5l-1.1,0.4c-0.6,0.3-0.9,0.7-1,1s0,0.8,0.2,1.3c0.2,0.4,0.8,0.8,1.8,1.1c0.4,0.1,0.8,0.3,1.3,0.4
		c0.4,0.1,0.8,0.3,1.2,0.6s0.7,0.6,0.8,0.9c1.3,2.7,0.9,4.6-1.3,5.7L21,45.1l-0.5-1.3l2.4-1C24.1,42.2,24.3,41.1,23.5,39.6
		L23.5,39.6z"/>
	<path d="M32.6,39.5c-0.5,0.3-0.9,0.4-1,0.4s-0.3-0.2-0.6-0.7l-1.5-2.6l-1.8,0.9l0.5,4.2l-0.2,0.1c-0.6,0.3-0.9,0.4-1,0.3
		c-0.1-0.1-0.1-0.1-0.2-0.2s-0.2-0.9-0.3-2.5l-1-10.1l1.3-0.7l6.3,10.5L32.6,39.5L32.6,39.5z M28.8,35.4l-0.2-0.2L26.9,32l0.5,3.8
		l-0.1,0.3L28.8,35.4L28.8,35.4z"/>
	<path d="M33.7,25.2c0.3-0.2,0.6-0.3,0.7-0.3c0.1,0,0.2,0,0.2,0.1s0.1,0.1,0.1,0.2l1.3,11c0.1,0.8,0.1,1.2,0.1,1.4s-0.2,0.3-0.6,0.5
		c-0.4,0.2-0.8,0.1-1.2-0.3c-0.2-0.2-0.3-0.4-0.4-0.6l-4.9-9.5l0.4-0.2c0.5-0.3,0.8-0.4,0.9-0.3c0.1,0,0.3,0.3,0.5,0.7l3.7,7.6
		l-1.1-10.1L33.7,25.2L33.7,25.2z"/>
	<path d="M37.6,24.8l0.1,0.2l1,3.2v0.1l2.7-1.4l0.4,1.4l-2.7,1.4l0.1,0.2l1.3,4l0,0c0,0,0,0.1,0,0.1l3-1.5l0.4,1.4L39.6,36
		l-3.8-11.8L40,22l0.4,1.3L37.6,24.8L37.6,24.8z"/>
</g>
</svg>
