<?xml version="1.0" encoding="utf-8"?>
<!-- Generator: Adobe Illustrator 28.0.0, SVG Export Plug-In . SVG Version: 6.00 Build 0)  -->
<svg version="1.1" id="Layer_2_00000137109524322823523980000004214176945821026991_"
	 xmlns="http://www.w3.org/2000/svg" xmlns:xlink="http://www.w3.org/1999/xlink" x="0px" y="0px" viewBox="0 0 52 55"
	 style="enable-background:new 0 0 52 55;" xml:space="preserve">
<style type="text/css">
	.st0{fill:#59AFFF;stroke:#000000;stroke-miterlimit:10;}
</style>
<path class="st0" d="M8.4,20.7L34.5,7.2c2.6-1.3,5.8-0.3,7.1,2.3v0c1.3,2.6,0.3,5.8-2.3,7.1L13.2,30.1c-2.6,1.3-5.8,0.3-7.1-2.3l0,0
	C4.7,25.2,5.8,22,8.4,20.7z"/>
<g>
	<path d="M19.1,43.1c-0.1-0.2-0.2-0.3-0.5-0.5s-0.5-0.3-0.7-0.3s-0.5-0.2-0.9-0.3v0c-0.5-0.2-1-0.3-1.3-0.5c-0.3-0.1-0.6-0.3-1-0.6
		c-0.4-0.3-0.7-0.6-0.9-1s-0.4-0.8-0.5-1.2s-0.1-0.7,0-1.1c0.1-0.8,0.8-1.4,2.1-2.1l1.9-0.5c0.1,0.4,0.2,0.8,0.1,0.9
		c-0.1,0.2-0.2,0.3-0.4,0.5l-1.1,0.4c-0.6,0.3-0.9,0.7-1,1s0,0.8,0.2,1.3c0.2,0.4,0.8,0.8,1.8,1.1c0.4,0.1,0.8,0.3,1.3,0.4
		c0.4,0.1,0.8,0.3,1.2,0.6s0.7,0.6,0.8,0.9c1.3,2.7,0.9,4.6-1.3,5.7l-2.4,0.8l-0.5-1.3l2.4-1C19.7,45.6,19.8,44.6,19.1,43.1
		L19.1,43.1z"/>
	<path d="M21.2,34.3l0.1,0.2l1,3.2v0.1l2.7-1.4l0.4,1.4l-2.7,1.4l0.1,0.2l1.3,4l0,0c0,0,0,0.1,0,0.1l3-1.5l0.4,1.4l-4.4,2.2
		l-3.8-11.8l4.3-2.2l0.4,1.3L21.2,34.3L21.2,34.3z"/>
	<path d="M25.5,30.6c0.6-0.3,0.9-0.4,1-0.3c0.1,0,0.1,0.1,0.1,0.1c0,0.1,1.1,3.3,3.2,9.8v0.3l1.7-0.8c0.4-0.2,0.7-0.3,0.8-0.3
		c0.1,0,0.3,0.1,0.4,0.3l0.3,0.8L29,42.5l-3.8-11.8L25.5,30.6L25.5,30.6z"/>
	<path d="M32.5,28.6l0.1,0.2l1,3.2V32l2.7-1.4l0.4,1.4L34,33.4l0.1,0.2l1.3,4l0,0c0,0,0,0.1,0,0.1l3-1.5l0.4,1.4l-4.4,2.2L30.7,28
		l4.3-2.2l0.4,1.3L32.5,28.6L32.5,28.6z"/>
	<path d="M43,35.6c-0.8,0.4-1.5,0.5-2,0.2c-0.6-0.3-1-0.8-1.4-1.6c-0.4-0.8-0.7-1.5-1-2.2c-0.3-0.7-0.6-1.5-0.8-2.4
		s-0.4-1.7-0.4-2.5c0-0.7,0.1-1.4,0.4-2.1c0.3-0.7,0.7-1.2,1.4-1.5l1.8-0.5c0.1,0.4,0.2,0.8,0.1,1s-0.2,0.4-0.5,0.5
		c0,0-0.3,0.1-1,0.4c-0.4,0.2-0.6,0.7-0.7,1.4s0.1,1.5,0.3,2.4c0.5,1.8,1,3.3,1.6,4.5c0.5,1,1.1,1.3,1.7,1c0.2-0.1,0.5-0.3,0.9-0.6
		c0.4-0.2,0.6-0.4,0.8-0.5l0.4,1.4c-0.1,0.1-0.3,0.2-0.7,0.5S43.2,35.5,43,35.6L43,35.6z"/>
	<path d="M47.3,33.3l-0.4,0.2L43.5,23V23l-1.6,0.8l-0.4-1.3l4.6-2.3l0.4,1.3l-1.6,0.8l0.1,0.2l3,9.4c0.2,0.4,0.2,0.7,0.1,0.9
		C48,32.8,47.8,33,47.3,33.3L47.3,33.3z"/>
</g>
</svg>
