<?xml version="1.0" encoding="utf-8"?>
<!-- Generator: Adobe Illustrator 28.0.0, SVG Export Plug-In . SVG Version: 6.00 Build 0)  -->
<svg version="1.1" id="Layer_2_00000127750366073928088870000014849715252830392977_"
	 xmlns="http://www.w3.org/2000/svg" xmlns:xlink="http://www.w3.org/1999/xlink" x="0px" y="0px" viewBox="0 0 52.2 52"
	 style="enable-background:new 0 0 52.2 52;" xml:space="preserve">
<style type="text/css">
	.st0{fill:#59AFFF;stroke:#000000;stroke-miterlimit:10;}
</style>
<path class="st0" d="M8.4,20.7L34.5,7.2c2.6-1.3,5.8-0.3,7.1,2.3v0c1.3,2.6,0.3,5.8-2.3,7.1L13.2,30.1c-2.6,1.3-5.8,0.3-7.1-2.3l0,0
	C4.7,25.2,5.8,22,8.4,20.7z"/>
<g>
	<path d="M21.1,42c-0.1-0.2-0.2-0.3-0.5-0.5s-0.5-0.3-0.7-0.3S19.4,41,19,40.8v0c-0.5-0.2-1-0.3-1.3-0.5c-0.3-0.1-0.6-0.3-1-0.6
		c-0.4-0.3-0.7-0.6-0.9-1s-0.4-0.8-0.5-1.2s-0.1-0.7,0-1.1c0.1-0.8,0.8-1.4,2.1-2.1l1.9-0.5c0.1,0.4,0.2,0.8,0.1,0.9
		c-0.1,0.2-0.2,0.3-0.4,0.5l-1.1,0.4c-0.6,0.3-0.9,0.7-1,1s0,0.8,0.2,1.3c0.2,0.4,0.8,0.8,1.8,1.1c0.4,0.1,0.8,0.3,1.3,0.4
		c0.4,0.1,0.8,0.3,1.2,0.6s0.7,0.6,0.8,0.9c1.3,2.7,0.9,4.6-1.3,5.7l-2.4,0.8l-0.5-1.3l2.4-1C21.6,44.5,21.8,43.5,21.1,42L21.1,42z"
		/>
	<path d="M26.4,43.8L26,44l-3.4-10.4v-0.1L21,34.3L20.6,33l4.6-2.3l0.4,1.3L24,32.8l0.1,0.2l3,9.4c0.2,0.4,0.2,0.7,0.1,0.9
		C27.1,43.4,26.9,43.5,26.4,43.8L26.4,43.8z"/>
	<path d="M35.3,39.3c-0.5,0.3-0.9,0.4-1,0.4s-0.3-0.2-0.6-0.7l-1.5-2.6l-1.8,0.9l0.5,4.2l-0.2,0.1c-0.6,0.3-0.9,0.4-1,0.3
		c-0.1-0.1-0.1-0.1-0.2-0.2s-0.2-0.9-0.3-2.5l-1-10.1l1.3-0.7l6.3,10.5L35.3,39.3L35.3,39.3z M31.5,35.2L31.2,35l-1.7-3.3l0.5,3.8
		L30,35.9L31.5,35.2L31.5,35.2z"/>
	<path d="M42,35.9c-0.6,0.3-0.9,0.4-1.1,0.4c-0.2,0-0.4-0.2-0.8-0.6l-3.3-3.5l-0.4,0.2l0.1,0.2l1.4,4.2c0.2,0.4,0.2,0.7,0.1,0.9
		c-0.1,0.2-0.3,0.3-0.8,0.6l-0.3,0.2L33,26.7l1.8-1.1c0.9-0.5,1.6-0.6,2.1-0.5c0.5,0.1,0.9,0.5,1.2,1.1c1.2,2.5,1.3,4.3,0.2,5.4
		l4.2,4.2L42,35.9L42,35.9z M36.5,30.8c1.1-0.6,1.2-1.8,0.2-3.8c-0.1-0.2-0.3-0.4-0.5-0.4c-0.2,0-0.5,0.1-0.9,0.3l-0.7,0.3l0.3,0.4
		l1.1,3.1l-0.1,0.3L36.5,30.8L36.5,30.8z"/>
	<path d="M44.9,34.4l-0.4,0.2l-3.4-10.4v-0.1l-1.6,0.8l-0.4-1.3l4.6-2.3l0.4,1.3l-1.6,0.8l0.1,0.2l3,9.4c0.2,0.4,0.2,0.7,0.1,0.9
		C45.7,33.9,45.4,34.1,44.9,34.4L44.9,34.4z"/>
</g>
</svg>
